<svg width="147" height="36" viewBox="0 0 147 36" fill="none"
    xmlns="http://www.w3.org/2000/svg">
    <g clip-path="url(#clip0_2582_950)">
        <path d="M41.7005 23.9352C41.7005 23.9855 41.7005 24.0359 41.7005 24.0862C41.6817 25.6596 41.361 27.1859 40.748 28.6303C40.1381 30.0652 39.2705 31.3523 38.1639 32.46C37.0574 33.5645 35.7716 34.4362 34.3381 35.0467C32.848 35.6792 31.2699 36.0033 29.6477 36.0033H17.7773C16.1552 36.0033 14.577 35.6824 13.0869 35.0467C11.6534 34.4362 10.3677 33.5677 9.26425 32.46C8.15768 31.3523 7.29003 30.0652 6.68016 28.6303C6.08286 27.2236 5.76535 25.7383 5.73077 24.2089C5.72763 24.0579 5.85023 23.9352 6.00113 23.9352H11.1976C11.3454 23.9352 11.468 24.0547 11.468 24.2058C11.468 27.5477 14.1746 30.2572 17.5132 30.2572H29.9212C33.2598 30.2572 35.9665 27.5477 35.9665 24.2089V16.4079C35.9665 16.2191 36.1551 16.0869 36.3312 16.153C37.444 16.5747 38.4437 17.2261 39.2705 18.0537C40.7732 19.5579 41.7037 21.6379 41.7037 23.9352" fill="#007777"/>
        <path d="M35.9635 11.7942C35.9635 8.45223 33.2568 5.74279 29.9182 5.74279H17.507C14.1685 5.74279 11.4618 8.45223 11.4618 11.7942V19.5952C11.4618 19.784 11.2732 19.9162 11.0971 19.8501C9.98427 19.4285 8.98459 18.7771 8.1578 17.9494C6.65513 16.4452 5.72461 14.3652 5.72461 12.068C5.72461 10.4442 6.04526 8.86447 6.67714 7.37286C7.28701 5.94104 8.15466 4.65083 9.26123 3.54629C10.3647 2.43859 11.6536 1.57006 13.0839 0.959573C14.574 0.327056 16.1521 0.00292969 17.7743 0.00292969H29.6447C31.2669 0.00292969 32.845 0.323909 34.3351 0.959573C35.7686 1.56692 37.0543 2.43859 38.1609 3.54629C39.2643 4.65083 40.1351 5.94104 40.745 7.37286C41.3423 8.7795 41.6629 10.268 41.6975 11.7942C41.7007 11.9452 41.5781 12.068 41.4272 12.068H36.2307C36.0829 12.068 35.9603 11.9452 35.9603 11.7973" fill="#007777"/>
        <path d="M47.1612 17.7831H41.971C41.8233 17.7831 41.7007 17.6635 41.7007 17.5125V12.317C41.7007 12.1691 41.8201 12.0464 41.971 12.0464H47.1612C47.309 12.0464 47.4316 12.166 47.4316 12.317V17.5125C47.4316 17.6604 47.3121 17.7831 47.1612 17.7831Z" fill="#00C096"/>
        <path d="M5.46054 23.935H0.270355C0.122603 23.935 0 23.8154 0 23.6643V18.4689C0 18.321 0.119459 18.1982 0.270355 18.1982H5.46054C5.60829 18.1982 5.73089 18.3178 5.73089 18.4689V23.6643C5.73089 23.8122 5.61143 23.935 5.46054 23.935Z" fill="#00C096"/>
        <path d="M29.3398 8.60986H18.0855C16.0107 8.60986 14.3289 10.2934 14.3289 12.3704V23.6361C14.3289 25.713 16.0107 27.3966 18.0855 27.3966H20.5942C20.7356 27.3871 20.852 27.2707 20.852 27.1259V19.0606C20.852 18.9127 20.7325 18.7899 20.5816 18.7899H18.0007C17.5543 18.7899 17.1959 18.428 17.1959 17.9843V13.862C17.1959 13.4151 17.5574 13.0564 18.0007 13.0564H29.4279C29.8711 13.0564 30.2326 13.4183 30.2326 13.862V17.9843C30.2326 18.4312 29.8711 18.7899 29.4279 18.7899H26.8501C26.7023 18.7899 26.5797 18.9095 26.5797 19.0606V27.1259C26.5797 27.2738 26.6992 27.3966 26.8501 27.3966H29.343C31.4178 27.3966 33.0997 25.713 33.0997 23.6361V12.3704C33.0997 10.2934 31.4178 8.60986 29.343 8.60986H29.3398Z" fill="#00C096"/>
    </g>
    <path d="M61.9769 27.9123L53.0942 8.12137H58.9795L65.2343 23.3178H65.3301L71.5986 8.12137H77.4839L68.6012 27.9123H61.9769Z" fill="url(#paint0_linear_2582_950)"/>
    <path d="M79.4821 27.9123V8.12137H84.0535L98.7803 23.5235L94.0174 20.8353H96.2072V8.12137H101.312V27.9123H96.7547L82.0279 12.3868L86.7908 15.1024H84.601V27.9123H79.4821Z" fill="url(#paint1_linear_2582_950)"/>
    <path d="M114.552 28.3101C112.344 28.3101 110.446 28.0723 108.859 27.5969C107.271 27.1214 106.016 26.4265 105.095 25.5122C104.182 24.5978 103.635 23.4869 103.452 22.1794L103.439 21.9874H108.503L108.53 22.1108C108.667 22.632 108.986 23.0755 109.488 23.4412C109.999 23.7978 110.688 24.0721 111.555 24.2641C112.422 24.447 113.462 24.5384 114.676 24.5384C115.697 24.5384 116.573 24.4424 117.303 24.2504C118.033 24.0584 118.59 23.7841 118.973 23.4275C119.366 23.0617 119.562 22.632 119.562 22.1383V22.1245C119.562 21.4936 119.302 21.0273 118.782 20.7256C118.261 20.4147 117.354 20.1861 116.058 20.0398L111.172 19.6558C108.736 19.4181 106.915 18.8375 105.711 17.914C104.506 16.9814 103.904 15.6876 103.904 14.0326V14.0052C103.904 12.7068 104.301 11.5913 105.095 10.6587C105.898 9.7169 107.038 8.99457 108.517 8.49168C110.004 7.97965 111.769 7.72363 113.813 7.72363C115.885 7.72363 117.668 7.96136 119.165 8.43682C120.67 8.91228 121.856 9.60261 122.723 10.5078C123.59 11.4039 124.115 12.4874 124.297 13.7583L124.338 13.9777H119.274L119.233 13.8543C119.096 13.3331 118.804 12.8988 118.357 12.5514C117.919 12.1948 117.322 11.9296 116.564 11.7559C115.816 11.5822 114.908 11.4953 113.841 11.4953C112.819 11.4953 111.956 11.5867 111.254 11.7696C110.56 11.9433 110.036 12.1993 109.68 12.5376C109.324 12.8668 109.146 13.26 109.146 13.7172V13.7309C109.146 14.3252 109.415 14.7778 109.954 15.0887C110.492 15.3995 111.382 15.619 112.623 15.747L117.577 16.1447C119.22 16.3093 120.575 16.6202 121.642 17.0774C122.71 17.5345 123.503 18.1517 124.024 18.9289C124.544 19.697 124.804 20.6387 124.804 21.7542V21.7679C124.804 23.1395 124.398 24.3144 123.586 25.2927C122.783 26.2619 121.615 27.0071 120.082 27.5283C118.558 28.0495 116.715 28.3101 114.552 28.3101Z" fill="url(#paint2_linear_2582_950)"/>
    <path d="M133.984 27.9123V12.1536H126.196V8.12137H147V12.1536H139.226V27.9123H133.984Z" fill="url(#paint3_linear_2582_950)"/>
    <defs>
        <linearGradient id="paint0_linear_2582_950" x1="53.0942" y1="7.72363" x2="147.033" y2="7.72363" gradientUnits="userSpaceOnUse">
            <stop stop-color="#006666"/>
            <stop offset="1" stop-color="#00C096"/>
        </linearGradient>
        <linearGradient id="paint1_linear_2582_950" x1="53.0942" y1="7.72363" x2="147.033" y2="7.72363" gradientUnits="userSpaceOnUse">
            <stop stop-color="#006666"/>
            <stop offset="1" stop-color="#00C096"/>
        </linearGradient>
        <linearGradient id="paint2_linear_2582_950" x1="53.0942" y1="7.72363" x2="147.033" y2="7.72363" gradientUnits="userSpaceOnUse">
            <stop stop-color="#006666"/>
            <stop offset="1" stop-color="#00C096"/>
        </linearGradient>
        <linearGradient id="paint3_linear_2582_950" x1="53.0942" y1="7.72363" x2="147.033" y2="7.72363" gradientUnits="userSpaceOnUse">
            <stop stop-color="#006666"/>
            <stop offset="1" stop-color="#00C096"/>
        </linearGradient>
        <clipPath id="clip0_2582_950">
            <rect width="47.4316" height="36" fill="white"/>
        </clipPath>
    </defs>
</svg>
