<svg width="16" height="16" viewBox="0 0 16 16" fill="none" xmlns="http://www.w3.org/2000/svg">
<g id="vuesax/outline/empty-wallet">
<g id="vuesax/outline/empty-wallet_2">
<g id="empty-wallet">
<path id="Vector" d="M11.8265 15.1665H4.17317C2.51317 15.1665 1.1665 13.8198 1.1665 12.1598V7.67318C1.1665 6.01318 2.51317 4.6665 4.17317 4.6665H11.8265C13.4865 4.6665 14.8332 6.01318 14.8332 7.67318V8.63318C14.8332 8.90651 14.6065 9.13318 14.3332 9.13318H12.9865C12.7532 9.13318 12.5398 9.21984 12.3865 9.37984L12.3798 9.38652C12.1932 9.56652 12.1065 9.81315 12.1265 10.0665C12.1665 10.5065 12.5865 10.8598 13.0665 10.8598H14.3332C14.6065 10.8598 14.8332 11.0865 14.8332 11.3598V12.1532C14.8332 13.8198 13.4865 15.1665 11.8265 15.1665ZM4.17317 5.6665C3.0665 5.6665 2.1665 6.56651 2.1665 7.67318V12.1598C2.1665 13.2665 3.0665 14.1665 4.17317 14.1665H11.8265C12.9332 14.1665 13.8332 13.2665 13.8332 12.1598V11.8665H13.0665C12.0598 11.8665 11.2065 11.1198 11.1265 10.1598C11.0732 9.61316 11.2732 9.07318 11.6732 8.67985C12.0198 8.32652 12.4865 8.13318 12.9865 8.13318H13.8332V7.67318C13.8332 6.56651 12.9332 5.6665 11.8265 5.6665H4.17317Z" fill="white"/>
<path id="Vector_2" d="M1.6665 8.7735C1.39317 8.7735 1.1665 8.54683 1.1665 8.2735V5.22687C1.1665 4.23354 1.79317 3.3335 2.71984 2.98017L8.01317 0.980166C8.55984 0.7735 9.1665 0.846865 9.63984 1.1802C10.1198 1.51353 10.3998 2.05353 10.3998 2.63353V5.16685C10.3998 5.44019 10.1732 5.66685 9.89984 5.66685C9.6265 5.66685 9.39984 5.44019 9.39984 5.16685V2.63353C9.39984 2.38019 9.27984 2.14685 9.0665 2.00019C8.85317 1.85352 8.59984 1.82018 8.35984 1.91352L3.0665 3.91352C2.5265 4.12018 2.15984 4.64687 2.15984 5.22687V8.2735C2.1665 8.5535 1.93984 8.7735 1.6665 8.7735Z" fill="white"/>
<path id="Vector_3" d="M13.0666 11.8666C12.06 11.8666 11.2066 11.12 11.1266 10.16C11.0733 9.60662 11.2733 9.06663 11.6733 8.6733C12.0133 8.32663 12.48 8.1333 12.98 8.1333H14.3666C15.0266 8.1533 15.5333 8.67327 15.5333 9.31327V10.6866C15.5333 11.3266 15.0266 11.8466 14.3866 11.8666H13.0666ZM14.3533 9.1333H12.9866C12.7533 9.1333 12.54 9.21996 12.3866 9.37996C12.1933 9.56663 12.1 9.81995 12.1266 10.0733C12.1666 10.5133 12.5866 10.8666 13.0666 10.8666H14.3733C14.46 10.8666 14.54 10.7866 14.54 10.6866V9.31327C14.54 9.21327 14.46 9.13997 14.3533 9.1333Z" fill="white"/>
<path id="Vector_4" d="M9.33317 8.5H4.6665C4.39317 8.5 4.1665 8.27333 4.1665 8C4.1665 7.72667 4.39317 7.5 4.6665 7.5H9.33317C9.6065 7.5 9.83317 7.72667 9.83317 8C9.83317 8.27333 9.6065 8.5 9.33317 8.5Z" fill="white"/>
</g>
</g>
</g>
</svg>
