<svg width="60" height="53" viewBox="0 0 60 53" fill="none" xmlns="http://www.w3.org/2000/svg">
<g clip-path="url(#clip0_6115_45744)">
<path d="M19.8381 3.35241C19.8381 4.01651 19.6466 4.66145 19.2828 5.21699C18.919 5.76614 18.402 6.19398 17.7956 6.4494C17.1892 6.70482 16.5254 6.76867 15.8871 6.64096C15.2424 6.51325 14.6552 6.19398 14.1892 5.72783C13.7296 5.26169 13.4105 4.66145 13.2828 4.01012C13.1552 3.3588 13.219 2.68831 13.4679 2.0753C13.7169 1.46229 14.1445 0.938675 14.6871 0.568313C15.236 0.197952 15.8743 0 16.5318 0C17.4126 0 18.2488 0.351205 18.8743 0.983373C19.4935 1.61554 19.8381 2.46482 19.8381 3.35241Z" fill="#1AB578"/>
<path d="M33.0956 3.35237C33.102 4.01647 32.9042 4.67418 32.5403 5.22972C32.1765 5.78526 31.6595 6.21948 31.0467 6.4749C30.4403 6.73032 29.7701 6.80056 29.1254 6.67285C28.4808 6.54514 27.8871 6.22587 27.4212 5.75334C26.9552 5.28081 26.6361 4.68056 26.5084 4.02285C26.3807 3.37153 26.4446 2.68828 26.6999 2.07526C26.9552 1.45587 27.3829 0.932251 27.9318 0.568275C28.4807 0.197914 29.1254 0.00634766 29.7829 0.00634766C30.6573 0.0127332 31.4999 0.363938 32.119 0.989721C32.7446 1.6155 33.0956 2.46478 33.0956 3.35237Z" fill="#1AB578"/>
<path d="M13.302 14.9422C13.302 15.6063 13.1105 16.2513 12.7466 16.8068C12.3828 17.356 11.8658 17.7902 11.2594 18.0392C10.653 18.2946 9.9892 18.3585 9.3509 18.2308C8.70622 18.1031 8.11899 17.7838 7.65942 17.3113C7.19346 16.8451 6.88069 16.2449 6.75303 15.5935C6.62537 14.9422 6.6892 14.2717 6.93814 13.6587C7.18708 13.0457 7.61474 12.5221 8.15729 12.1581C8.69984 11.7878 9.33814 11.5962 9.99559 11.5962C10.8764 11.5962 11.7126 11.9474 12.3381 12.5796C12.9509 13.2053 13.302 14.0546 13.302 14.9422Z" fill="#1AB578"/>
<path d="M52.9849 14.9422C52.9849 15.6063 52.7934 16.2513 52.4232 16.8068C52.0594 17.356 51.5423 17.7902 50.936 18.0392C50.3296 18.2946 49.6658 18.3585 49.0211 18.2308C48.3828 18.1031 47.7892 17.7838 47.3296 17.3113C46.87 16.8451 46.5509 16.2449 46.4232 15.5935C46.2955 14.9422 46.3594 14.2717 46.6083 13.6587C46.8572 13.0457 47.2849 12.5221 47.8275 12.1581C48.37 11.7878 49.0083 11.5962 49.6657 11.5962C50.5466 11.5962 51.3828 11.9474 52.0083 12.5796C52.6402 13.2053 52.9913 14.0546 52.9849 14.9422Z" fill="#1AB578"/>
<path d="M46.3339 3.35237C46.3403 4.01647 46.1424 4.67418 45.7786 5.22972C45.4148 5.78526 44.8978 6.21948 44.285 6.4749C43.6786 6.73032 43.0084 6.80056 42.3637 6.67285C41.719 6.54514 41.1254 6.22587 40.6595 5.75334C40.1935 5.28081 39.8744 4.68056 39.7467 4.02285C39.619 3.37153 39.6829 2.68828 39.9382 2.07526C40.1935 1.45587 40.6212 0.932251 41.1701 0.568275C41.719 0.197914 42.3637 0.00634766 43.0212 0.00634766C43.8956 0.0127332 44.7382 0.363938 45.3573 0.989721C45.9892 1.6155 46.3339 2.46478 46.3339 3.35237Z" fill="#1AB578"/>
<path d="M6.65106 26.5638C6.65744 27.2279 6.45957 27.8856 6.09574 28.4412C5.73191 28.9967 5.21489 29.4309 4.6085 29.6864C4.00212 29.9418 3.33191 30.012 2.68723 29.8843C2.04255 29.7566 1.44893 29.4373 0.97659 28.9648C0.510633 28.4923 0.191484 27.892 0.063824 27.2407C-0.0638355 26.5894 -5.74741e-06 25.9061 0.24893 25.2931C0.497867 24.6737 0.925526 24.1501 1.47446 23.7797C2.0234 23.4094 2.66808 23.2114 3.32553 23.2114C3.75957 23.2114 4.19361 23.2944 4.59574 23.4605C4.99787 23.6265 5.36808 23.8755 5.67446 24.1884C5.98085 24.5013 6.22978 24.8717 6.39574 25.274C6.5617 25.6826 6.65106 26.1232 6.65106 26.5638Z" fill="#1AB578"/>
<path d="M13.302 38.0897C13.302 38.7538 13.1105 39.3987 12.7466 39.9543C12.3828 40.5034 11.8658 40.9312 11.2594 41.1867C10.653 41.4421 9.9892 41.5059 9.3509 41.3782C8.71261 41.2505 8.11899 40.9312 7.65942 40.4651C7.19346 39.999 6.88069 39.3987 6.75303 38.7474C6.62537 38.0961 6.6892 37.4256 6.93814 36.8126C7.18708 36.1996 7.61474 35.6759 8.15729 35.3056C8.69984 34.9352 9.33814 34.7437 9.99559 34.7437C10.4296 34.7437 10.8637 34.8267 11.2658 34.9927C11.6679 35.1587 12.0318 35.4077 12.3381 35.7206C12.6445 36.0335 12.8871 36.4039 13.053 36.8126C13.219 37.2149 13.302 37.6555 13.302 38.0897Z" fill="#1AB578"/>
<path d="M52.9849 38.0897C52.9849 38.7538 52.787 39.3987 52.4232 39.9543C52.0594 40.5034 51.5423 40.9312 50.936 41.1867C50.3296 41.4421 49.6658 41.5059 49.0211 41.3782C48.3828 41.2505 47.7892 40.9312 47.3296 40.4651C46.87 39.999 46.5509 39.3987 46.4232 38.7474C46.2955 38.0961 46.3594 37.4256 46.6083 36.8126C46.8572 36.1996 47.2849 35.6759 47.8275 35.3056C48.37 34.9352 49.0083 34.7437 49.6657 34.7437C50.0998 34.7437 50.5338 34.8267 50.936 34.9927C51.3381 35.1587 51.7019 35.4077 52.0083 35.7206C52.3147 36.0335 52.5572 36.4039 52.7232 36.8126C52.9083 37.2149 52.9913 37.6555 52.9849 38.0897Z" fill="#1AB578"/>
<path d="M59.6872 26.5638C59.6936 27.2279 59.4957 27.8856 59.1319 28.4411C58.7681 28.9967 58.2511 29.4309 57.6383 29.6863C57.0319 29.9418 56.3617 30.012 55.717 29.8843C55.0723 29.7566 54.4723 29.4309 54.0064 28.9648C53.5404 28.4922 53.2213 27.892 53.0936 27.2343C52.966 26.583 53.0298 25.8997 53.2851 25.2867C53.5404 24.6737 53.9681 24.1437 54.517 23.7797C55.066 23.4093 55.7106 23.2178 56.3681 23.2178C57.2489 23.2178 58.0915 23.569 58.7106 24.2011C59.3362 24.8269 59.6872 25.6762 59.6872 26.5638Z" fill="#1AB578"/>
<path d="M19.8381 49.8773C19.8381 50.5414 19.6466 51.1863 19.2828 51.7419C18.919 52.291 18.402 52.7189 17.7956 52.9743C17.1892 53.2297 16.5254 53.2936 15.8871 53.1659C15.2424 53.0382 14.6552 52.7189 14.1892 52.2463C13.7296 51.7802 13.4105 51.18 13.2828 50.5286C13.1552 49.8773 13.219 49.2068 13.4679 48.5938C13.7169 47.9808 14.1445 47.4572 14.6871 47.0868C15.2296 46.7165 15.8679 46.5249 16.5254 46.5249C17.4062 46.5249 18.2424 46.8761 18.8679 47.5083C19.4935 48.1404 19.8381 48.9897 19.8381 49.8773Z" fill="#1AB578"/>
<path d="M33.0956 49.8773C33.102 50.5414 32.9042 51.1991 32.5403 51.7547C32.1765 52.3102 31.6595 52.7444 31.0467 52.9998C30.4403 53.2553 29.7701 53.3255 29.1254 53.1978C28.4808 53.0701 27.8871 52.7444 27.4212 52.2783C26.9552 51.8057 26.6361 51.2055 26.5084 50.5478C26.3807 49.8901 26.4446 49.2132 26.6999 48.6002C26.9552 47.9872 27.3829 47.4572 27.9318 47.0868C28.4807 46.7165 29.1254 46.5249 29.7829 46.5249C30.6573 46.5313 31.4999 46.8825 32.119 47.5147C32.7446 48.1404 33.0956 48.9897 33.0956 49.8773Z" fill="#1AB578"/>
<path d="M46.3339 49.8773C46.3403 50.5414 46.1424 51.1991 45.7786 51.7547C45.4148 52.3102 44.8978 52.7444 44.285 52.9998C43.6786 53.2553 43.0084 53.3255 42.3637 53.1978C41.719 53.0701 41.1254 52.7444 40.6595 52.2783C40.1935 51.8057 39.8744 51.2055 39.7467 50.5478C39.619 49.8901 39.6829 49.2132 39.9382 48.6002C40.1935 47.9872 40.6212 47.4572 41.1701 47.0868C41.719 46.7165 42.3637 46.5249 43.0212 46.5249C43.8956 46.5313 44.7382 46.8825 45.3573 47.5147C45.9892 48.1404 46.3339 48.9897 46.3339 49.8773Z" fill="#1AB578"/>
<path d="M31.7169 21.4619H27.9701C26.1765 21.4619 24.7212 22.9178 24.7212 24.7122V28.4605C24.7212 30.2548 26.1765 31.7107 27.9701 31.7107H31.7169C33.5106 31.7107 34.9659 30.2548 34.9659 28.4605V24.7122C34.9659 22.9178 33.5106 21.4619 31.7169 21.4619Z" fill="#00603D"/>
<path d="M19.4998 10.5936L18.4147 11.6791C17.004 13.0903 17.004 15.3763 18.4147 16.7812L19.4998 17.8667C20.9104 19.2779 23.1955 19.2779 24.5998 17.8667L25.6849 16.7812C27.0955 15.3699 27.0955 13.0839 25.6849 11.6791L24.5998 10.5936C23.1955 9.18236 20.9104 9.18236 19.4998 10.5936Z" fill="#1AB578"/>
<path d="M12.7659 23.0389L11.6871 24.118C10.2765 25.5292 10.2765 27.8216 11.6871 29.2328L12.7659 30.312C14.1765 31.7232 16.468 31.7232 17.8786 30.312L18.9573 29.2328C20.368 27.8216 20.368 25.5292 18.9573 24.118L17.8786 23.0389C16.468 21.6277 14.1829 21.6277 12.7659 23.0389Z" fill="#1AB578"/>
<path d="M41.4446 23.0389L40.3658 24.118C38.9552 25.5292 38.9552 27.8216 40.3658 29.2328L41.4446 30.312C42.8552 31.7232 45.1467 31.7232 46.5573 30.312L47.6361 29.2328C49.0467 27.8216 49.0467 25.5292 47.6361 24.118L46.5573 23.0389C45.1403 21.6277 42.8552 21.6277 41.4446 23.0389Z" fill="#1AB578"/>
<path d="M34.0148 10.4337L32.6169 11.8322C31.2957 13.154 31.2957 15.2995 32.6169 16.6277L34.0148 18.0261C35.3361 19.348 37.4808 19.348 38.8084 18.0261L40.2063 16.6277C41.5276 15.3059 41.5276 13.1604 40.2063 11.8322L38.8084 10.4337C37.4808 9.11193 35.3361 9.11193 34.0148 10.4337Z" fill="#1AB578"/>
<path d="M19.4998 35.1014L18.4147 36.1869C17.004 37.5981 17.004 39.8841 18.4147 41.2953L19.4998 42.3809C20.9104 43.7921 23.1955 43.7921 24.6062 42.3809L25.6913 41.2953C27.1019 39.8841 27.1019 37.5981 25.6913 36.1869L24.6062 35.1014C23.1955 33.6902 20.9104 33.6902 19.4998 35.1014Z" fill="#1AB578"/>
<path d="M34.0085 34.9416L32.6106 36.34C31.2893 37.6618 31.2893 39.8073 32.6106 41.1355L34.0085 42.534C35.3297 43.8558 37.4744 43.8558 38.8021 42.534L40.1999 41.1355C41.5212 39.8137 41.5212 37.6682 40.1999 36.34L38.8021 34.9416C37.4808 33.6197 35.3361 33.6197 34.0085 34.9416Z" fill="#1AB578"/>
</g>
<defs>
<clipPath id="clip0_6115_45744">
<rect width="60" height="53" fill="white"/>
</clipPath>
</defs>
</svg>
