<svg width="379" height="110" viewBox="0 0 379 110" fill="none"
    xmlns="http://www.w3.org/2000/svg">
    <g opacity="0.6">
        <path d="M267.547 -332.016C262.631 -349.175 246.942 -361 229.094 -361H49.8937C32.0446 -361 16.3555 -349.174 11.4402 -332.015L-96.8445 45.9981C-98.9067 53.1971 -98.9066 60.8304 -96.8443 68.0294L11.4399 446.016C16.3554 463.174 32.0443 475 49.8931 475H229.094C246.942 475 262.631 463.175 267.547 446.017L375.844 68.0305C377.906 60.8308 377.906 53.1967 375.844 45.997L267.547 -332.016Z" fill="url(#paint0_linear_5994_23303)" fill-opacity="0.4"/>
        <path d="M262.037 -294.986C257.132 -312.159 241.436 -324 223.575 -324H65.4248C47.5643 -324 31.868 -312.159 26.9628 -294.986L-70.8623 47.5145C-72.9131 54.6946 -72.9131 62.3054 -70.8623 69.4855L26.9628 411.985C31.868 429.159 47.5643 441 65.4248 441H223.575C241.436 441 257.132 429.159 262.037 411.985L359.862 69.4855C361.913 62.3054 361.913 54.6946 359.862 47.5145L262.037 -294.986Z" fill="url(#paint1_linear_5994_23303)" fill-opacity="0.4" stroke="white" stroke-opacity="0.6" stroke-miterlimit="10"/>
        <path d="M258.03 -250.986C253.125 -268.159 237.429 -280 219.569 -280H87.4189C69.558 -280 53.8614 -268.159 48.9567 -250.984L-35.863 46.0156C-37.9133 53.195 -37.9133 60.8049 -35.863 67.9843L48.9567 364.984C53.8614 382.159 69.558 394 87.4189 394H219.569C237.429 394 253.125 382.159 258.03 364.986L342.862 67.9858C344.913 60.8055 344.913 53.1945 342.862 46.0142L258.03 -250.986Z" fill="url(#paint2_linear_5994_23303)" fill-opacity="0.6" stroke="white" stroke-opacity="0.6" stroke-miterlimit="10"/>
        <path d="M252.317 -214.021C247.399 -231.177 231.712 -243 213.865 -243H102.148C84.3019 -243 68.6146 -231.178 63.6968 -214.023L-10.8401 45.9914C-12.9051 53.1951 -12.905 60.834 -10.8398 68.0376L63.6963 328.024C68.6144 345.178 84.3015 357 102.147 357H213.866C231.712 357 247.4 345.177 252.317 328.022L326.841 68.0359C328.905 60.8333 328.905 53.1957 326.841 45.993L252.317 -214.021Z" fill="url(#paint3_linear_5994_23303)" stroke="white" stroke-opacity="0.6" stroke-miterlimit="10"/>
    </g>
    <defs>
        <linearGradient id="paint0_linear_5994_23303" x1="-129.942" y1="-361" x2="124.898" y2="-361" gradientUnits="userSpaceOnUse">
            <stop stop-color="#006666"/>
            <stop offset="1" stop-color="#00C096"/>
        </linearGradient>
        <linearGradient id="paint1_linear_5994_23303" x1="-101.317" y1="-324" x2="131.178" y2="-324" gradientUnits="userSpaceOnUse">
            <stop stop-color="#006666"/>
            <stop offset="1" stop-color="#00C096"/>
        </linearGradient>
        <linearGradient id="paint2_linear_5994_23303" x1="-63.0662" y1="-280" x2="141.764" y2="-280" gradientUnits="userSpaceOnUse">
            <stop stop-color="#006666"/>
            <stop offset="1" stop-color="#00C096"/>
        </linearGradient>
        <linearGradient id="paint3_linear_5994_23303" x1="-35.5033" y1="-243" x2="147.513" y2="-243" gradientUnits="userSpaceOnUse">
            <stop stop-color="#006666"/>
            <stop offset="1" stop-color="#00C096"/>
        </linearGradient>
    </defs>
</svg>
