<svg width="380" height="110" viewBox="0 0 380 110" fill="none"
    xmlns="http://www.w3.org/2000/svg">
    <path d="M277.128 -331.245C272.48 -348.785 256.608 -361 238.462 -361H78.5265C60.3803 -361 44.5075 -348.785 39.8604 -331.244L-60.2861 46.7697C-62.0647 53.4833 -62.0646 60.5443 -60.2859 67.2578L39.86 445.244C44.5074 462.785 60.38 475 78.5259 475H238.462C256.608 475 272.48 462.786 277.128 445.245L377.285 67.2589C379.064 60.5447 379.064 53.4829 377.285 46.7686L277.128 -331.245Z" fill="url(#paint0_linear_6525_11128)" fill-opacity="0.3" stroke="white" stroke-opacity="0.6" stroke-miterlimit="10"/>
    <path d="M269.681 -294.33C265.004 -311.829 249.151 -324 231.038 -324H87.9617C69.8488 -324 53.9963 -311.829 49.3186 -294.33L-42.2386 48.1699C-44.0478 54.9378 -44.0478 62.0622 -42.2386 68.8301L49.3186 411.33C53.9963 428.829 69.8488 441 87.9617 441H231.038C249.151 441 265.004 428.829 269.681 411.33L361.239 68.8301C363.048 62.0622 363.048 54.9378 361.239 48.1699L269.681 -294.33Z" fill="url(#paint1_linear_6525_11128)" fill-opacity="0.4" stroke="white" stroke-opacity="0.6" stroke-miterlimit="10"/>
    <path d="M261.153 -250.748C256.33 -268.04 240.576 -280 222.624 -280H95.3636C77.4109 -280 61.6573 -268.039 56.8341 -250.746L-26.0027 46.2536C-27.9635 53.2837 -27.9635 60.7162 -26.0027 67.7463L56.8341 364.746C61.6573 382.039 77.4109 394 95.3636 394H222.624C240.576 394 256.33 382.04 261.153 364.748L344.002 67.7477C345.963 60.7168 345.963 53.2832 344.002 46.2522L261.153 -250.748Z" fill="url(#paint2_linear_6525_11128)" fill-opacity="0.6" stroke="white" stroke-opacity="0.6" stroke-miterlimit="10"/>
    <path d="M253.317 -214.021C248.399 -231.177 232.712 -243 214.865 -243H103.148C85.3019 -243 69.6146 -231.178 64.6968 -214.023L-9.84005 45.9914C-11.9051 53.1951 -11.905 60.834 -9.83976 68.0376L64.6963 328.024C69.6144 345.178 85.3015 357 103.147 357H214.866C232.712 357 248.4 345.177 253.317 328.022L327.841 68.0359C329.905 60.8333 329.905 53.1957 327.841 45.993L253.317 -214.021Z" fill="url(#paint3_linear_6525_11128)" stroke="white" stroke-opacity="0.6" stroke-miterlimit="10"/>
    <defs>
        <linearGradient id="paint0_linear_6525_11128" x1="-43.6831" y1="43.0667" x2="380" y2="43.0667" gradientUnits="userSpaceOnUse">
            <stop offset="0.330855" stop-color="#5E5CDE"/>
            <stop offset="1" stop-color="#5E5CDE" stop-opacity="0.6"/>
        </linearGradient>
        <linearGradient id="paint1_linear_6525_11128" x1="-27.1657" y1="45.75" x2="364" y2="45.75" gradientUnits="userSpaceOnUse">
            <stop offset="0.330855" stop-color="#5E5CDE"/>
            <stop offset="1" stop-color="#5E5CDE" stop-opacity="0.6"/>
        </linearGradient>
        <linearGradient id="paint2_linear_6525_11128" x1="-12.6046" y1="45.7667" x2="347" y2="45.7667" gradientUnits="userSpaceOnUse">
            <stop offset="0.330855" stop-color="#5E5CDE"/>
            <stop offset="1" stop-color="#5E5CDE" stop-opacity="0.6"/>
        </linearGradient>
        <linearGradient id="paint3_linear_6525_11128" x1="2" y1="47" x2="331" y2="47" gradientUnits="userSpaceOnUse">
            <stop offset="0.330855" stop-color="#5E5CDE"/>
            <stop offset="1" stop-color="#5E5CDE" stop-opacity="0.6"/>
        </linearGradient>
    </defs>
</svg>
