<svg width="86" height="86" viewBox="0 0 86 86" fill="none" xmlns="http://www.w3.org/2000/svg">
<rect width="86" height="86" rx="10" fill="white"/>
<path d="M32.8074 18.9619C32.8074 19.6477 32.6116 20.3137 32.2397 20.8873C31.8678 21.4544 31.3393 21.8962 30.7194 22.16C30.0995 22.4237 29.421 22.4897 28.7685 22.3578C28.1094 22.2259 27.5092 21.8962 27.0328 21.4149C26.563 20.9335 26.2368 20.3137 26.1063 19.6411C25.9758 18.9685 26.0476 18.2761 26.302 17.6431C26.5565 17.01 26.9872 16.4693 27.5483 16.0869C28.1029 15.7044 28.7554 15.5 29.4275 15.5C30.3279 15.5 31.1892 15.8627 31.8221 16.5155C32.455 17.1683 32.8074 18.0453 32.8074 18.9619Z" fill="#47CA80"/>
<path d="M46.3588 18.9607C46.3654 19.6464 46.1696 20.3256 45.7977 20.8993C45.4192 21.473 44.8907 21.9214 44.2709 22.1851C43.6445 22.4489 42.9659 22.5214 42.3003 22.3896C41.6413 22.2577 41.0345 21.928 40.5582 21.44C40.0819 20.9521 39.7621 20.3322 39.6251 19.653C39.4946 18.9804 39.5664 18.2749 39.8274 17.6418C40.0819 17.0022 40.5256 16.4615 41.0867 16.0856C41.6478 15.7032 42.3069 15.5054 42.9789 15.5054C43.8794 15.512 44.7341 15.8746 45.367 16.5209C46 17.1671 46.3588 18.0441 46.3654 18.9607H46.3588Z" fill="#47CA80"/>
<path d="M26.1255 30.9304C26.1255 31.6162 25.9297 32.2822 25.5513 32.8558C25.1859 33.4229 24.6574 33.8713 24.0375 34.1285C23.4176 34.3923 22.739 34.4582 22.08 34.3263C21.4275 34.1944 20.8207 33.8647 20.3509 33.3768C19.8746 32.8954 19.5549 32.2756 19.4244 31.603C19.2939 30.9304 19.3591 30.238 19.6136 29.605C19.8746 28.9719 20.3052 28.4312 20.8599 28.0554C21.421 27.6729 22.0735 27.4751 22.7456 27.4751C23.6395 27.4751 24.5008 27.8378 25.1337 28.4906C25.7666 29.1368 26.1255 30.0138 26.1255 30.9304Z" fill="#47CA80"/>
<path d="M66.6972 30.9304C66.6972 31.6162 66.4949 32.2822 66.123 32.8558C65.7511 33.4229 65.2226 33.8713 64.6027 34.1285C63.9894 34.3923 63.3043 34.4582 62.6518 34.3263C61.9928 34.1944 61.3925 33.8647 60.9161 33.3768C60.4463 32.8954 60.1201 32.2756 59.9961 31.603C59.8591 30.9304 59.9309 30.238 60.1854 29.605C60.4398 28.9719 60.877 28.4312 61.4316 28.0554C61.9862 27.6729 62.6452 27.4751 63.3108 27.4751C64.2112 27.4751 65.0725 27.8378 65.7054 28.4906C66.3383 29.1368 66.6972 30.0138 66.6972 30.9304Z" fill="#47CA80"/>
<path d="M59.8976 18.9607C59.8976 19.6464 59.7019 20.3256 59.3299 20.8993C58.9515 21.473 58.423 21.9214 57.8031 22.1851C57.1832 22.4489 56.4981 22.5214 55.8391 22.3896C55.1736 22.2577 54.5667 21.928 54.0904 21.44C53.6141 20.9521 53.2944 20.3322 53.1639 19.653C53.0334 18.9804 53.0986 18.2749 53.3596 17.6418C53.6206 17.0022 54.0578 16.4615 54.6189 16.0856C55.1801 15.7032 55.8391 15.5054 56.5112 15.5054C57.4116 15.512 58.2664 15.8746 58.9058 16.5209C59.5387 17.1671 59.8976 18.0441 59.8976 18.9607Z" fill="#47CA80"/>
<path d="M19.3263 42.9336C19.3328 43.6193 19.1306 44.2985 18.7652 44.8722C18.3932 45.4459 17.8582 45.8943 17.2383 46.158C16.6185 46.4218 15.9333 46.4943 15.2743 46.3625C14.6153 46.2306 14.0085 45.9009 13.5322 45.4129C13.0493 44.925 12.7296 44.3051 12.5926 43.6325C12.4621 42.9599 12.5273 42.2544 12.7818 41.6213C13.0428 40.9817 13.48 40.441 14.0346 40.0586C14.5957 39.6761 15.2548 39.4717 15.9268 39.4717C16.3705 39.4717 16.8142 39.5574 17.2253 39.7288C17.6364 39.9003 18.0148 40.1575 18.328 40.4806C18.6477 40.8037 18.8957 41.1861 19.0653 41.6016C19.2415 42.0236 19.3263 42.4786 19.3263 42.9336Z" fill="#47CA80"/>
<path d="M26.1255 54.8352C26.1255 55.5209 25.9297 56.1869 25.5513 56.7606C25.1859 57.3277 24.6574 57.7695 24.0375 58.0333C23.4176 58.297 22.739 58.363 22.08 58.2311C21.4275 58.0992 20.8207 57.7695 20.3509 57.2881C19.8746 56.8068 19.5549 56.1869 19.4244 55.5143C19.2939 54.8418 19.3591 54.1494 19.6136 53.5164C19.8746 52.8833 20.3052 52.3426 20.8599 51.9602C21.421 51.5777 22.0735 51.3799 22.7456 51.3799C23.1893 51.3799 23.633 51.4656 24.0375 51.6371C24.4486 51.8085 24.827 52.0657 25.1402 52.3888C25.4534 52.7119 25.7013 53.0943 25.871 53.5164C26.0406 53.9318 26.1255 54.3868 26.1255 54.8352Z" fill="#47CA80"/>
<path d="M66.6972 54.8352C66.6972 55.5209 66.4949 56.1869 66.123 56.7606C65.7511 57.3277 65.2226 57.7695 64.6027 58.0333C63.9894 58.297 63.3043 58.363 62.6518 58.2311C61.9928 58.0992 61.3925 57.7695 60.9161 57.2881C60.4463 56.8068 60.1201 56.1869 59.9961 55.5143C59.8591 54.8418 59.9309 54.1494 60.1854 53.5164C60.4398 52.8833 60.877 52.3426 61.4316 51.9602C61.9862 51.5777 62.6452 51.3799 63.3108 51.3799C63.761 51.3799 64.1982 51.4656 64.6092 51.6371C65.0203 51.8085 65.3922 52.0657 65.7054 52.3888C66.0251 52.7119 66.2731 53.0943 66.4427 53.5164C66.6124 53.9318 66.6972 54.3868 66.6972 54.8352Z" fill="#47CA80"/>
<path d="M73.5416 42.9309C73.5481 43.6166 73.3459 44.2958 72.9739 44.8695C72.602 45.4432 72.0735 45.8916 71.4471 46.1554C70.8272 46.4191 70.1421 46.4916 69.4831 46.3598C68.8176 46.2279 68.2108 45.8916 67.7344 45.4102C67.2581 44.9223 66.9384 44.3024 66.8079 43.6232C66.6709 42.9506 66.7426 42.2451 67.0036 41.6121C67.2646 40.979 67.7018 40.4317 68.2629 40.0559C68.8241 39.6734 69.4831 39.4756 70.1552 39.4756C71.0556 39.4756 71.9169 39.8383 72.5498 40.4911C73.1827 41.1373 73.5416 42.0143 73.5416 42.9309Z" fill="#47CA80"/>
<path d="M32.8074 67.0058C32.8074 67.6916 32.6116 68.3576 32.2397 68.9313C31.8678 69.4984 31.3393 69.9402 30.7194 70.2039C30.0995 70.4677 29.421 70.5336 28.7685 70.4018C28.1094 70.2699 27.5092 69.9402 27.0328 69.4522C26.563 68.9708 26.2368 68.351 26.1063 67.6784C25.9758 67.0058 26.0476 66.3134 26.302 65.6804C26.5565 65.0474 26.9872 64.5067 27.5483 64.1242C28.1029 63.7418 28.7554 63.5439 29.4275 63.5439C30.3279 63.5439 31.1892 63.9066 31.8221 64.5594C32.455 65.2122 32.8074 66.0892 32.8074 67.0058Z" fill="#47CA80"/>
<path d="M46.3588 67.0058C46.3654 67.6916 46.1696 68.3708 45.7977 68.9445C45.4192 69.5182 44.8907 69.9665 44.2709 70.2303C43.6445 70.4941 42.9659 70.5666 42.3003 70.4347C41.6413 70.3028 41.0345 69.9665 40.5582 69.4852C40.0819 68.9972 39.7621 68.3774 39.6251 67.6982C39.4946 67.019 39.5664 66.32 39.8274 65.687C40.0819 65.054 40.5256 64.5067 41.0867 64.1242C41.6478 63.7418 42.3069 63.5439 42.9789 63.5439C43.8794 63.5505 44.7341 63.9132 45.367 64.566C46 65.2122 46.3588 66.0892 46.3654 67.0058H46.3588Z" fill="#47CA80"/>
<path d="M59.8976 67.0058C59.8976 67.6916 59.7019 68.3708 59.3299 68.9445C58.9515 69.5182 58.423 69.9665 57.8031 70.2303C57.1832 70.4941 56.4981 70.5666 55.8391 70.4347C55.1736 70.3028 54.5667 69.9665 54.0904 69.4852C53.6141 68.9972 53.2944 68.3774 53.1639 67.6982C53.0334 67.019 53.0986 66.32 53.3596 65.687C53.6206 65.054 54.0578 64.5067 54.6189 64.1242C55.1801 63.7418 55.8391 63.5439 56.5112 63.5439C57.4116 63.5505 58.2664 63.9132 58.9058 64.566C59.5387 65.2122 59.8976 66.0892 59.8976 67.0058Z" fill="#47CA80"/>
<path d="M44.9499 37.6646H41.1198C39.2863 37.6646 37.7986 39.168 37.7986 41.0209V44.8916C37.7986 46.7445 39.2863 48.248 41.1198 48.248H44.9499C46.7834 48.248 48.2711 46.7445 48.2711 44.8916V41.0209C48.2711 39.168 46.7834 37.6646 44.9499 37.6646Z" fill="#47CA80"/>
<path d="M32.4603 26.4411L31.351 27.5621C29.909 29.0194 29.909 31.38 31.351 32.8307L32.4603 33.9517C33.9023 35.409 36.2382 35.409 37.6802 33.9517L38.7894 32.8307C40.2314 31.3735 40.2314 29.0128 38.7894 27.5621L37.6802 26.4411C36.2382 24.9838 33.9023 24.9838 32.4603 26.4411Z" fill="#47CA80"/>
<path d="M25.5841 39.2902L24.4814 40.4046C23.0394 41.8619 23.0394 44.2292 24.4814 45.6864L25.5841 46.8008C27.0261 48.2581 29.362 48.2581 30.8041 46.8008L31.9068 45.6864C33.3488 44.2292 33.3488 41.8619 31.9068 40.4046L30.8041 39.2902C29.362 37.8329 27.0261 37.8329 25.5841 39.2902Z" fill="#E6E6E6"/>
<path d="M54.8937 39.2902L53.791 40.4046C52.349 41.8619 52.349 44.2292 53.791 45.6864L54.8937 46.8008C56.3357 48.2581 58.6716 48.2581 60.1136 46.8008L61.2163 45.6864C62.6583 44.2292 62.6583 41.8619 61.2163 40.4046L60.1136 39.2902C58.6716 37.8329 56.3357 37.8329 54.8937 39.2902Z" fill="#47CA80"/>
<path d="M47.2982 26.2742L45.8692 27.7183C44.512 29.0833 44.512 31.2989 45.8692 32.6704L47.2982 34.1145C48.6488 35.4795 50.8412 35.4795 52.1919 34.1145L53.6208 32.6704C54.978 31.3055 54.978 29.0899 53.6208 27.7183L52.1919 26.2742C50.8412 24.9092 48.6488 24.9092 47.2982 26.2742Z" fill="#E6E6E6"/>
<path d="M32.4605 51.7463L31.3513 52.8673C29.9093 54.3246 29.9093 56.6852 31.3513 58.1359L32.4605 59.2569C33.9025 60.7142 36.2384 60.7142 37.6804 59.2569L38.7897 58.1359C40.2317 56.6786 40.2317 54.318 38.7897 52.8673L37.6804 51.7463C36.2384 50.289 33.9025 50.289 32.4605 51.7463Z" fill="#47CA80"/>
<path d="M47.2918 51.5852L45.8628 53.0293C44.5122 54.3943 44.5122 56.6099 45.8628 57.9815L47.2918 59.4256C48.649 60.7905 50.8414 60.7905 52.192 59.4256L53.621 57.9815C54.9716 56.6165 54.9716 54.4009 53.621 53.0293L52.192 51.5852C50.8414 50.2203 48.649 50.2203 47.2918 51.5852Z" fill="#E6E6E6"/>
</svg>
