<svg width="100" height="155" viewBox="0 0 100 155" fill="none" xmlns="http://www.w3.org/2000/svg">
<g opacity="0.6">
<path d="M433.971 95.5084C452.608 91.7184 466 75.3294 466 56.3106L466 -48.3196C466 -67.3387 452.608 -83.7279 433.97 -87.5175L55.9566 -164.379C50.6968 -165.449 45.2756 -165.449 40.0158 -164.379L-337.971 -87.5179C-356.608 -83.7281 -370 -67.339 -370 -48.3201L-370 56.311C-370 75.3296 -356.609 91.7185 -337.972 95.5087L40.0149 172.379C45.2753 173.449 50.6971 173.449 55.9575 172.379L433.971 95.5084Z" fill="url(#paint0_linear_6006_23401)" fill-opacity="0.2"/>
<path d="M400.655 86.8021C419.441 83.1391 433 66.6813 433 47.5415L433 -35.7147C433 -54.8545 419.441 -71.3123 400.655 -74.9753L58.1552 -141.758C53.0994 -142.744 47.9007 -142.744 42.8448 -141.758L-299.655 -74.9753C-318.441 -71.3123 -332 -54.8545 -332 -35.7147L-332 47.5415C-332 66.6813 -318.441 83.1391 -299.655 86.8021L42.8448 153.585C47.9007 154.57 53.0994 154.57 58.1553 153.585L400.655 86.8021Z" fill="url(#paint1_linear_6006_23401)" fill-opacity="0.4" stroke="white" stroke-opacity="0.6" stroke-miterlimit="10"/>
<path d="M354.655 85.0669C373.441 81.4038 387 64.9461 387 45.8063L387 -19.6998C387 -38.8399 373.441 -55.2979 354.654 -58.9606L57.6544 -116.865C52.5991 -117.85 47.401 -117.85 42.3456 -116.865L-254.654 -58.9606C-273.441 -55.2979 -287 -38.84 -287 -19.6998L-287 45.8063C-287 64.9461 -273.441 81.4038 -254.655 85.0669L42.3446 142.979C47.4006 143.965 52.5994 143.965 57.6555 142.979L354.655 85.0669Z" fill="url(#paint2_linear_6006_23401)" fill-opacity="0.6" stroke="white" stroke-opacity="0.6" stroke-miterlimit="10"/>
<path d="M317.681 81.7569C336.455 78.0835 350 61.6313 350 42.5013L350 -9.06051C350 -28.19 336.456 -44.642 317.682 -48.3159L57.6681 -99.2002C52.5945 -100.193 47.3765 -100.193 42.3029 -99.2L-217.683 -48.3164C-236.456 -44.6422 -250 -28.1904 -250 -9.06115L-250 42.5019C-250 61.6316 -236.455 78.0837 -217.682 81.7574L42.3042 132.633C47.3769 133.625 52.594 133.625 57.6668 132.633L317.681 81.7569Z" fill="url(#paint3_linear_6006_23401)" stroke="white" stroke-opacity="0.6" stroke-miterlimit="10"/>
</g>
<defs>
<linearGradient id="paint0_linear_6006_23401" x1="21.5" y1="0.5" x2="21.5" y2="155" gradientUnits="userSpaceOnUse">
<stop stop-color="#006666"/>
<stop offset="1" stop-color="#00C096"/>
</linearGradient>
<linearGradient id="paint1_linear_6006_23401" x1="26.2506" y1="2.84237" x2="26.2506" y2="138.406" gradientUnits="userSpaceOnUse">
<stop stop-color="#006666"/>
<stop offset="1" stop-color="#00C096"/>
</linearGradient>
<linearGradient id="paint2_linear_6006_23401" x1="28.6351" y1="10.3519" x2="28.6351" y2="129.784" gradientUnits="userSpaceOnUse">
<stop stop-color="#006666"/>
<stop offset="1" stop-color="#00C096"/>
</linearGradient>
<linearGradient id="paint3_linear_6006_23401" x1="30.9808" y1="14.2985" x2="30.9808" y2="121.012" gradientUnits="userSpaceOnUse">
<stop stop-color="#006666"/>
<stop offset="1" stop-color="#00C096"/>
</linearGradient>
</defs>
</svg>
